<svg xmlns="http://www.w3.org/2000/svg" xmlns:xlink="http://www.w3.org/1999/xlink" width="500" zoomAndPan="magnify" viewBox="0 0 375 374.999991" height="500" preserveAspectRatio="xMidYMid meet" version="1.0"><defs><g/></defs><rect x="-37.5" width="450" fill="#ffffff" y="-37.499999" height="449.999989" fill-opacity="1"/><rect x="-37.5" width="450" fill="#ffffff" y="-37.499999" height="449.999989" fill-opacity="1"/><rect x="-37.5" width="450" fill="#000000" y="-37.499999" height="449.999989" fill-opacity="1"/><g fill="#ffffff" fill-opacity="1"><g transform="translate(105.226764, 223.299485)"><g><path d="M 64.910156 -20.878906 C 51.132812 -20.3125 21.875 -21.730469 21.875 -56.8125 C 21.875 -83.800781 40.195312 -94.167969 64.910156 -92.890625 L 64.910156 -67.75 L 86.640625 -67.75 L 86.640625 -112.351562 C 86.640625 -112.917969 86.074219 -113.628906 85.078125 -113.628906 L 66.613281 -113.628906 C 38.777344 -113.628906 0 -107.238281 0 -56.8125 C 0 -8.238281 38.347656 0 66.613281 0 L 85.078125 0 C 86.074219 0 86.640625 -0.710938 86.640625 -1.277344 L 86.640625 -20.878906 Z M 64.910156 -20.878906 "/></g></g></g><g fill="#ffffff" fill-opacity="1"><g transform="translate(205.124991, 280.564172)"><g><path d="M 61.359375 -21.164062 L 0 -21.164062 L 0 -1.277344 C 0 -0.710938 0.710938 0 1.5625 0 L 61.359375 0 C 62.351562 0 62.921875 -0.710938 62.921875 -1.277344 L 62.921875 -19.742188 C 62.921875 -20.453125 62.351562 -21.164062 61.359375 -21.164062 Z M 21.730469 -42.894531 L 21.730469 -112.351562 C 21.730469 -112.917969 21.164062 -113.628906 20.3125 -113.628906 L 1.5625 -113.628906 C 0.710938 -113.628906 0 -112.917969 0 -112.351562 L 0 -42.894531 Z M 21.730469 -42.894531 "/></g></g></g><g fill="#ffffff" fill-opacity="1"><g transform="translate(87.047555, 251.745379)"><g><path d="M 5.125 -2.15625 C 5.550781 -2.15625 6.015625 -2.203125 6.515625 -2.296875 C 7.015625 -2.390625 7.460938 -2.507812 7.859375 -2.65625 L 7.859375 -0.46875 C 7.265625 -0.226562 6.734375 -0.0664062 6.265625 0.015625 C 5.796875 0.109375 5.304688 0.15625 4.796875 0.15625 C 3.867188 0.15625 3.128906 0.0507812 2.578125 -0.15625 C 2.023438 -0.375 1.582031 -0.71875 1.25 -1.1875 C 0.96875 -1.59375 0.757812 -2.109375 0.625 -2.734375 C 0.5 -3.367188 0.4375 -4.132812 0.4375 -5.03125 C 0.4375 -6.820312 0.820312 -8.128906 1.59375 -8.953125 C 2.363281 -9.773438 3.59375 -10.1875 5.28125 -10.1875 C 5.769531 -10.1875 6.207031 -10.175781 6.59375 -10.15625 C 6.976562 -10.132812 7.320312 -10.097656 7.625 -10.046875 L 7.625 -7.890625 C 7.28125 -7.910156 6.914062 -7.925781 6.53125 -7.9375 C 6.15625 -7.945312 5.738281 -7.953125 5.28125 -7.953125 C 4.695312 -7.953125 4.257812 -7.894531 3.96875 -7.78125 C 3.6875 -7.664062 3.476562 -7.472656 3.34375 -7.203125 C 3.21875 -6.984375 3.125 -6.695312 3.0625 -6.34375 C 3.007812 -6 2.984375 -5.5625 2.984375 -5.03125 C 2.984375 -4.519531 3.007812 -4.097656 3.0625 -3.765625 C 3.113281 -3.429688 3.191406 -3.148438 3.296875 -2.921875 C 3.429688 -2.648438 3.628906 -2.453125 3.890625 -2.328125 C 4.160156 -2.210938 4.570312 -2.15625 5.125 -2.15625 Z M 5.125 -2.15625 "/></g></g></g><g fill="#ffffff" fill-opacity="1"><g transform="translate(103.893589, 251.745379)"><g><path d="M 9.875 -5.03125 C 9.875 -3.195312 9.5 -1.875 8.75 -1.0625 C 8.007812 -0.25 6.8125 0.15625 5.15625 0.15625 C 3.414062 0.15625 2.191406 -0.222656 1.484375 -0.984375 C 0.785156 -1.753906 0.4375 -3.101562 0.4375 -5.03125 C 0.4375 -6.851562 0.804688 -8.164062 1.546875 -8.96875 C 2.285156 -9.78125 3.488281 -10.1875 5.15625 -10.1875 C 6.894531 -10.1875 8.113281 -9.800781 8.8125 -9.03125 C 9.519531 -8.269531 9.875 -6.9375 9.875 -5.03125 Z M 3.25 -2.875 C 3.382812 -2.613281 3.585938 -2.425781 3.859375 -2.3125 C 4.128906 -2.207031 4.5625 -2.15625 5.15625 -2.15625 C 5.738281 -2.15625 6.164062 -2.207031 6.4375 -2.3125 C 6.707031 -2.425781 6.914062 -2.613281 7.0625 -2.875 C 7.164062 -3.09375 7.238281 -3.367188 7.28125 -3.703125 C 7.332031 -4.046875 7.359375 -4.488281 7.359375 -5.03125 C 7.359375 -5.570312 7.332031 -6.015625 7.28125 -6.359375 C 7.238281 -6.703125 7.164062 -6.984375 7.0625 -7.203125 C 6.925781 -7.472656 6.722656 -7.664062 6.453125 -7.78125 C 6.179688 -7.894531 5.75 -7.953125 5.15625 -7.953125 C 4.550781 -7.953125 4.113281 -7.894531 3.84375 -7.78125 C 3.570312 -7.664062 3.375 -7.472656 3.25 -7.203125 C 3.144531 -6.984375 3.066406 -6.703125 3.015625 -6.359375 C 2.960938 -6.015625 2.9375 -5.570312 2.9375 -5.03125 C 2.9375 -4.488281 2.960938 -4.046875 3.015625 -3.703125 C 3.066406 -3.367188 3.144531 -3.09375 3.25 -2.875 Z M 3.25 -2.875 "/></g></g></g><g fill="#ffffff" fill-opacity="1"><g transform="translate(122.915099, 251.745379)"><g><path d="M 10.8125 -10.03125 L 10.8125 0 L 8.5 0 L 8.5 -6.015625 L 6.78125 -1.921875 L 4.765625 -1.921875 L 3.09375 -6.015625 L 3.09375 0 L 0.765625 0 L 0.765625 -10.03125 L 3.796875 -10.03125 L 5.828125 -4.96875 L 7.90625 -10.03125 Z M 10.8125 -10.03125 "/></g></g></g><g fill="#ffffff" fill-opacity="1"><g transform="translate(143.216298, 251.745379)"><g><path d="M 3.25 -2.8125 L 3.25 0 L 0.765625 0 L 0.765625 -10.03125 L 4.4375 -10.03125 C 5.976562 -10.03125 7.070312 -9.757812 7.71875 -9.21875 C 8.375 -8.6875 8.703125 -7.785156 8.703125 -6.515625 C 8.703125 -5.253906 8.359375 -4.320312 7.671875 -3.71875 C 6.984375 -3.113281 5.921875 -2.8125 4.484375 -2.8125 Z M 6.1875 -6.515625 C 6.1875 -6.984375 6.054688 -7.3125 5.796875 -7.5 C 5.546875 -7.695312 5.09375 -7.796875 4.4375 -7.796875 L 3.25 -7.796875 L 3.25 -4.984375 L 4.4375 -4.984375 C 5.101562 -4.984375 5.5625 -5.09375 5.8125 -5.3125 C 6.0625 -5.539062 6.1875 -5.941406 6.1875 -6.515625 Z M 6.1875 -6.515625 "/></g></g></g><g fill="#ffffff" fill-opacity="1"><g transform="translate(160.910134, 251.745379)"><g><path d="M 2.5625 0 L -0.046875 0 L 3.65625 -10.03125 L 6.234375 -10.03125 L 9.859375 0 L 7.265625 0 L 6.734375 -1.6875 L 3.09375 -1.6875 Z M 4.890625 -7.5625 C 4.804688 -7.269531 4.710938 -6.953125 4.609375 -6.609375 C 4.515625 -6.273438 4.347656 -5.726562 4.109375 -4.96875 L 3.703125 -3.640625 L 6.109375 -3.640625 L 5.703125 -4.96875 C 5.554688 -5.375 5.414062 -5.800781 5.28125 -6.25 C 5.144531 -6.707031 5.015625 -7.144531 4.890625 -7.5625 Z M 4.890625 -7.5625 "/></g></g></g><g fill="#ffffff" fill-opacity="1"><g transform="translate(179.467757, 251.745379)"><g><path d="M 9.421875 -10.03125 L 9.421875 0 L 7.0625 0 L 3.09375 -5.796875 L 3.09375 0 L 0.765625 0 L 0.765625 -10.03125 L 3.125 -10.03125 L 7.109375 -4.015625 L 7.109375 -10.03125 Z M 9.421875 -10.03125 "/></g></g></g><g fill="#ffffff" fill-opacity="1"><g transform="translate(198.377298, 251.745379)"><g><path d="M 6.984375 -10.03125 L 9.546875 -10.03125 L 6.046875 -3.640625 L 6.046875 0 L 3.5625 0 L 3.5625 -3.640625 L -0.03125 -10.03125 L 2.796875 -10.03125 L 4.8125 -5.84375 Z M 6.984375 -10.03125 "/></g></g></g><g fill="#ffffff" fill-opacity="1"><g transform="translate(216.645206, 251.745379)"><g/></g></g><g fill="#ffffff" fill-opacity="1"><g transform="translate(228.645985, 251.745379)"><g><path d="M 7.171875 -2.3125 L 7.171875 0 L 0.765625 0 L 0.765625 -10.03125 L 3.25 -10.03125 L 3.25 -2.3125 Z M 7.171875 -2.3125 "/></g></g></g><g fill="#ffffff" fill-opacity="1"><g transform="translate(236.836213, 251.745379)"><g><path d="M 9.875 -5.03125 C 9.875 -3.195312 9.5 -1.875 8.75 -1.0625 C 8.007812 -0.25 6.8125 0.15625 5.15625 0.15625 C 3.414062 0.15625 2.191406 -0.222656 1.484375 -0.984375 C 0.785156 -1.753906 0.4375 -3.101562 0.4375 -5.03125 C 0.4375 -6.851562 0.804688 -8.164062 1.546875 -8.96875 C 2.285156 -9.78125 3.488281 -10.1875 5.15625 -10.1875 C 6.894531 -10.1875 8.113281 -9.800781 8.8125 -9.03125 C 9.519531 -8.269531 9.875 -6.9375 9.875 -5.03125 Z M 3.25 -2.875 C 3.382812 -2.613281 3.585938 -2.425781 3.859375 -2.3125 C 4.128906 -2.207031 4.5625 -2.15625 5.15625 -2.15625 C 5.738281 -2.15625 6.164062 -2.207031 6.4375 -2.3125 C 6.707031 -2.425781 6.914062 -2.613281 7.0625 -2.875 C 7.164062 -3.09375 7.238281 -3.367188 7.28125 -3.703125 C 7.332031 -4.046875 7.359375 -4.488281 7.359375 -5.03125 C 7.359375 -5.570312 7.332031 -6.015625 7.28125 -6.359375 C 7.238281 -6.703125 7.164062 -6.984375 7.0625 -7.203125 C 6.925781 -7.472656 6.722656 -7.664062 6.453125 -7.78125 C 6.179688 -7.894531 5.75 -7.953125 5.15625 -7.953125 C 4.550781 -7.953125 4.113281 -7.894531 3.84375 -7.78125 C 3.570312 -7.664062 3.375 -7.472656 3.25 -7.203125 C 3.144531 -6.984375 3.066406 -6.703125 3.015625 -6.359375 C 2.960938 -6.015625 2.9375 -5.570312 2.9375 -5.03125 C 2.9375 -4.488281 2.960938 -4.046875 3.015625 -3.703125 C 3.066406 -3.367188 3.144531 -3.09375 3.25 -2.875 Z M 3.25 -2.875 "/></g></g></g><g fill="#ffffff" fill-opacity="1"><g transform="translate(247.953736, 251.745379)"><g><path d="M 6.453125 -3.734375 L 4.71875 -3.734375 L 4.71875 -5.734375 L 8.765625 -5.734375 L 8.765625 -0.453125 C 8.460938 -0.304688 7.925781 -0.164062 7.15625 -0.03125 C 6.394531 0.09375 5.703125 0.15625 5.078125 0.15625 C 3.335938 0.15625 2.128906 -0.238281 1.453125 -1.03125 C 0.773438 -1.832031 0.4375 -3.164062 0.4375 -5.03125 C 0.4375 -6.820312 0.828125 -8.128906 1.609375 -8.953125 C 2.398438 -9.773438 3.660156 -10.1875 5.390625 -10.1875 C 6.023438 -10.1875 6.585938 -10.171875 7.078125 -10.140625 C 7.578125 -10.117188 7.957031 -10.082031 8.21875 -10.03125 L 8.21875 -7.859375 C 7.875 -7.890625 7.457031 -7.910156 6.96875 -7.921875 C 6.476562 -7.941406 5.953125 -7.953125 5.390625 -7.953125 C 4.785156 -7.953125 4.332031 -7.894531 4.03125 -7.78125 C 3.738281 -7.675781 3.519531 -7.492188 3.375 -7.234375 C 3.238281 -7.015625 3.140625 -6.726562 3.078125 -6.375 C 3.015625 -6.019531 2.984375 -5.570312 2.984375 -5.03125 C 2.984375 -4.5 3.007812 -4.054688 3.0625 -3.703125 C 3.125 -3.359375 3.210938 -3.078125 3.328125 -2.859375 C 3.472656 -2.578125 3.679688 -2.375 3.953125 -2.25 C 4.234375 -2.132812 4.660156 -2.078125 5.234375 -2.078125 C 5.421875 -2.078125 5.617188 -2.082031 5.828125 -2.09375 C 6.035156 -2.113281 6.242188 -2.140625 6.453125 -2.171875 Z M 6.453125 -3.734375 "/></g></g></g><g fill="#ffffff" fill-opacity="1"><g transform="translate(258.01552, 251.745379)"><g><path d="M 9.875 -5.03125 C 9.875 -3.195312 9.5 -1.875 8.75 -1.0625 C 8.007812 -0.25 6.8125 0.15625 5.15625 0.15625 C 3.414062 0.15625 2.191406 -0.222656 1.484375 -0.984375 C 0.785156 -1.753906 0.4375 -3.101562 0.4375 -5.03125 C 0.4375 -6.851562 0.804688 -8.164062 1.546875 -8.96875 C 2.285156 -9.78125 3.488281 -10.1875 5.15625 -10.1875 C 6.894531 -10.1875 8.113281 -9.800781 8.8125 -9.03125 C 9.519531 -8.269531 9.875 -6.9375 9.875 -5.03125 Z M 3.25 -2.875 C 3.382812 -2.613281 3.585938 -2.425781 3.859375 -2.3125 C 4.128906 -2.207031 4.5625 -2.15625 5.15625 -2.15625 C 5.738281 -2.15625 6.164062 -2.207031 6.4375 -2.3125 C 6.707031 -2.425781 6.914062 -2.613281 7.0625 -2.875 C 7.164062 -3.09375 7.238281 -3.367188 7.28125 -3.703125 C 7.332031 -4.046875 7.359375 -4.488281 7.359375 -5.03125 C 7.359375 -5.570312 7.332031 -6.015625 7.28125 -6.359375 C 7.238281 -6.703125 7.164062 -6.984375 7.0625 -7.203125 C 6.925781 -7.472656 6.722656 -7.664062 6.453125 -7.78125 C 6.179688 -7.894531 5.75 -7.953125 5.15625 -7.953125 C 4.550781 -7.953125 4.113281 -7.894531 3.84375 -7.78125 C 3.570312 -7.664062 3.375 -7.472656 3.25 -7.203125 C 3.144531 -6.984375 3.066406 -6.703125 3.015625 -6.359375 C 2.960938 -6.015625 2.9375 -5.570312 2.9375 -5.03125 C 2.9375 -4.488281 2.960938 -4.046875 3.015625 -3.703125 C 3.066406 -3.367188 3.144531 -3.09375 3.25 -2.875 Z M 3.25 -2.875 "/></g></g></g></svg>